<svg width="201" height="201" viewBox="0 0 201 201" fill="none" xmlns="http://www.w3.org/2000/svg">
<path d="M88.239 15.075C80.4804 16.1202 78.9126 16.4016 73.968 17.889C58.4508 22.4718 44.22 31.4364 33.6474 43.215C22.9944 55.1544 16.0398 68.139 12.261 83.214C7.11537 103.716 9.52737 124.097 19.5372 144.037C21.9492 148.901 22.7934 150.187 27.5772 156.579C31.2354 161.483 39.8784 170.167 44.622 173.744C51.5766 178.93 56.8428 181.905 65.0436 185.282C75.6966 189.664 83.3748 191.312 94.47 191.633C105.244 191.955 113.645 190.829 122.811 187.855C142.067 181.583 156.177 171.493 168.197 155.413C172.096 150.227 173.423 148.057 175.955 142.991C179.855 135.152 182.709 126.59 184.196 118.389C185.362 111.957 185.483 96.6006 184.397 90.048C181.664 73.6866 173.865 57.2448 162.89 44.9436C149.102 29.4264 130.127 18.7734 110.751 15.678C104.078 14.5926 93.7062 14.3112 88.239 15.075ZM110.349 18.8538C116.66 19.9794 123.454 22.0698 130.127 24.924C137.605 28.1802 141.906 30.7932 150.67 37.4664C151.634 38.19 154.81 41.2452 157.705 44.2602C166.388 53.1846 172.78 63.4758 176.84 75.0534C180.86 86.43 181.905 92.5002 181.865 104.118C181.825 110.671 181.664 113.444 180.94 117.786C179.815 124.419 176.076 135.956 173.222 141.544C170.77 146.368 165.704 154.087 162.649 157.785C155.051 166.87 144.318 175.151 133.062 180.578C125.062 184.438 111.957 187.855 102.51 188.578C83.8572 190.025 60.903 182.669 45.426 170.287C32.6826 160.076 22.914 146.569 17.8488 132.097C16.0398 126.871 14.5926 121.123 13.869 116.258C13.065 110.992 13.065 97.2036 13.869 91.857C15.7584 79.3548 20.5422 66.8124 27.5772 56.0388C36.3006 42.612 50.3706 30.753 64.6416 24.7632C73.0434 21.1854 80.7216 19.1352 90.048 17.9694C93.666 17.487 105.686 18.0096 110.349 18.8538Z" fill="#001D23"/>
<path d="M89.3645 24.8034C88.8419 24.8838 88.0781 25.4466 87.6359 26.0094C86.8319 27.0546 86.7917 27.4566 86.9123 40.9236L87.0329 54.7524L87.9977 55.5162C88.7615 56.1594 89.6057 56.28 92.7413 56.28H96.5201L96.3995 57.7674C96.2789 59.496 96.1181 59.5764 91.2941 60.2598C89.6861 60.501 86.9927 61.2648 85.3445 61.908C83.6963 62.5914 82.1687 63.114 82.0079 63.114C81.8069 63.114 80.6813 61.707 79.5557 59.9784C78.3899 58.29 77.1035 56.481 76.6613 55.9584C76.0583 55.3152 75.8573 54.5916 75.8975 53.466C76.0985 50.6922 73.4051 49.2048 71.5559 51.054C70.0685 52.5414 70.7519 55.476 72.5609 55.476C73.1237 55.476 73.9277 55.8378 74.3699 56.28C75.2543 57.1644 79.5959 63.7974 79.5959 64.2396C79.5959 64.4004 78.3899 65.325 76.9427 66.2898C74.3297 68.0586 68.3399 73.6866 68.3399 74.4102C68.3399 75.174 67.4555 74.7318 64.5209 72.5208C61.9883 70.6314 61.5059 70.0686 61.5059 69.1038C61.5059 66.4908 58.2899 65.3652 56.7221 67.3752C56.2397 67.9782 55.8779 68.742 55.8779 69.144C55.8779 70.5108 57.4457 71.958 58.9733 71.958C59.9783 71.958 60.9431 72.4002 62.3501 73.4454C66.2495 76.38 66.4103 76.5408 66.1289 77.3046C65.8877 77.9076 65.2043 77.988 60.4205 77.988C55.1141 77.988 54.9533 77.9478 54.0287 76.983C52.9031 75.777 51.3353 75.6966 50.2499 76.782C49.2851 77.7468 49.2449 78.7116 50.0891 79.9578C50.6519 80.7618 50.9735 80.8422 52.4207 80.601C54.2699 80.2794 64.3199 79.8774 64.3199 80.1186C64.3199 80.1588 63.6767 81.807 62.9129 83.7366C61.7873 86.5506 60.2999 92.7012 60.2999 94.5906C60.2999 94.7916 59.9783 94.671 59.5361 94.3092C58.8527 93.666 58.7723 93.666 58.5311 94.5504C58.4105 95.073 58.2899 96.8016 58.2899 98.3694C58.2899 101.465 58.7321 102.028 60.0587 100.661C60.4205 100.339 60.7019 100.219 60.7019 100.42C60.7019 100.621 61.1441 100.902 61.6667 100.982C62.5913 101.183 62.5913 101.143 62.7923 96.882C62.9129 94.5102 63.1943 92.259 63.4355 91.857C63.7973 91.1736 63.9179 91.254 64.5209 92.5002C65.9279 95.1936 68.5811 98.1282 71.6363 100.299C74.4905 102.349 74.7317 102.59 74.2493 103.354C73.7669 104.198 69.6263 106.53 68.6615 106.53C68.4203 106.53 67.6565 106.048 67.0535 105.445L65.9279 104.359V106.007C65.9279 106.972 66.2093 107.937 66.5309 108.299C66.8525 108.62 67.3751 109.987 67.6967 111.314C68.0183 112.64 68.6213 114.248 69.1037 114.932C69.5861 115.575 69.9479 116.258 69.9479 116.459C69.9479 117.022 67.5761 119.193 67.2947 118.871C66.8525 118.429 65.0837 111.957 64.3199 107.937C63.7571 104.882 63.3953 103.796 62.7119 103.234C61.5461 102.269 60.5009 102.309 59.4557 103.354C58.6517 104.158 58.6517 104.44 58.9331 109.063C59.2145 113.846 59.2547 114.047 60.7823 116.419C61.6265 117.826 62.9531 120.841 63.7169 123.253C65.0837 127.635 65.1239 127.635 68.2193 130.65C73.9679 136.198 73.9679 136.198 76.9025 136.801C78.3899 137.122 79.5959 137.243 79.5959 137.082C79.5959 136.801 76.2995 133.183 70.6313 127.193C69.2243 125.665 69.0635 125.263 68.9027 123.092L68.7821 120.68L70.5911 119.153L72.4403 117.665L75.1337 118.51C76.6211 118.992 78.2291 119.394 78.6713 119.394C79.7165 119.394 81.6863 121.886 81.3647 122.811C80.8823 124.017 84.4199 126.992 88.0379 128.439C89.5253 129.042 91.1735 129.163 97.0829 129.243C103.756 129.323 104.52 129.243 106.851 128.399C109.505 127.394 111.193 126.389 113.082 124.66C113.967 123.856 114.128 123.414 113.967 122.53C113.605 121.042 114.731 119.394 116.138 119.394C116.7 119.394 118.389 118.952 119.876 118.429L122.529 117.505L124.338 119.354C125.987 121.042 126.107 121.324 125.987 123.012C125.946 124.017 125.866 125.022 125.866 125.263C125.826 125.545 123.494 128.198 120.6 131.253C115.736 136.358 114.57 137.886 115.937 137.363C116.218 137.243 117.303 137.042 118.308 136.881C120.56 136.519 121.766 135.675 126.429 131.092L130.047 127.514L131.333 123.334C132.057 121.042 133.343 118.027 134.187 116.58C135.715 114.007 135.755 113.846 135.996 109.022C136.238 104.48 136.197 104.038 135.474 103.314C134.589 102.43 133.785 102.309 132.7 102.912C131.735 103.435 131.253 104.761 130.248 109.746C129.363 114.289 127.956 118.992 127.474 118.992C127.313 118.992 126.67 118.429 125.987 117.746L124.821 116.54L125.665 115.052C126.147 114.248 126.75 112.48 127.032 111.153C127.313 109.826 127.796 108.58 128.117 108.339C128.64 107.937 129.564 104.922 129.243 104.6C129.162 104.52 128.559 104.801 127.916 105.284C126.429 106.329 126.308 106.329 123.655 105.163C121.524 104.198 120.318 102.912 120.801 102.068C120.962 101.867 122.288 100.862 123.776 99.897C126.308 98.2086 128.72 95.7564 130.409 93.1032C131.092 92.0178 131.172 91.9776 131.574 92.661C131.816 93.1032 132.057 95.1936 132.177 97.3242L132.378 101.224L133.424 100.902C134.107 100.741 134.79 100.822 135.393 101.224L136.278 101.786V97.4448C136.238 93.5052 136.197 93.1434 135.675 93.8268C134.831 94.9524 134.469 94.3494 133.906 90.8922C133.665 89.2842 132.821 86.3094 132.057 84.3396C131.293 82.3296 130.65 80.5608 130.65 80.3598C130.65 79.7568 140.016 79.9176 141.544 80.5608C143.232 81.2442 144.599 80.802 145.122 79.395C145.685 77.9478 145.644 77.7066 144.72 76.782C143.594 75.6564 141.866 75.7368 140.7 76.983C139.735 77.988 139.655 77.988 134.308 77.9076C129.564 77.787 128.841 77.7066 128.72 77.1036C128.64 76.6614 129.404 75.8976 130.931 74.8524C132.218 73.968 133.544 72.963 133.826 72.6012C134.147 72.1992 134.991 71.958 135.876 71.958C138.569 71.958 140.057 68.9028 138.288 67.134C136.559 65.4054 133.464 66.8526 133.464 69.3852C133.464 70.0284 132.66 70.9128 130.569 72.5208C127.876 74.6514 126.63 75.2142 126.63 74.4102C126.63 73.7268 120.318 67.8174 117.906 66.2496C116.499 65.325 115.374 64.521 115.374 64.4004C115.374 64.119 116.901 61.6266 118.911 58.5714C120.238 56.6418 121.002 55.878 121.605 55.878C123.012 55.878 124.62 54.3906 124.62 53.064C124.62 51.7776 123.052 50.25 121.725 50.25C121.323 50.25 120.519 50.7324 119.916 51.2952C119.112 52.0992 118.952 52.5816 119.153 53.5062C119.313 54.3906 119.112 54.9534 118.268 55.9584C117.665 56.682 116.298 58.6116 115.213 60.2196C113.806 62.31 113.042 63.114 112.6 62.9532C112.238 62.8728 110.711 62.31 109.223 61.7472C107.696 61.1442 104.801 60.4206 102.791 60.0588C100.741 59.697 98.9321 59.295 98.7713 59.094C98.5703 58.9332 98.4899 58.29 98.5703 57.6468L98.6909 56.481L102.63 56.28C105.927 56.1192 106.691 55.9584 107.173 55.3152C107.615 54.672 107.736 51.9384 107.736 40.5618C107.736 27.4566 107.696 26.5722 106.972 25.6878C106.208 24.723 106.088 24.723 98.2085 24.6828C93.8267 24.6426 89.8469 24.6828 89.3645 24.8034ZM104.721 39.999V51.255L97.7261 51.3756C92.9423 51.456 90.5705 51.3354 90.2087 51.0138C89.7665 50.652 89.6459 48.5214 89.6459 40.2C89.6459 34.4916 89.7665 29.5068 89.8871 29.1852C90.1283 28.6224 91.0529 28.542 97.4447 28.6224L104.721 28.743V39.999ZM101.987 63.918C105.806 65.8878 110.429 69.5862 109.987 70.2696C109.786 70.6314 101.746 71.2746 97.8869 71.2746C93.7061 71.2344 84.7817 70.6314 84.6209 70.35C84.5003 70.149 85.5053 69.0636 86.7917 67.8576C89.0831 65.6868 95.8367 61.908 97.3643 61.908C97.7261 61.908 99.8165 62.8326 101.987 63.918ZM85.7465 65.8878C84.2189 67.1742 82.5707 68.7018 82.0481 69.3048C81.2039 70.1892 80.7215 70.35 78.6713 70.35H76.2593L77.0231 69.5058C78.3899 67.9782 81.3245 66.1692 84.6209 64.8426C86.3897 64.119 87.9575 63.516 88.1585 63.516C88.3193 63.516 87.2339 64.5612 85.7465 65.8878ZM110.027 64.7622C113.484 66.129 116.339 67.8174 117.786 69.345L118.71 70.35H116.138H113.565L111.354 68.1792C110.148 66.9732 108.5 65.4456 107.736 64.7622C106.972 64.0788 106.449 63.516 106.61 63.516C106.771 63.516 108.299 64.0788 110.027 64.7622ZM79.1939 73.0032C79.1939 73.1238 78.8321 73.7268 78.3497 74.2896C77.2241 75.777 73.5659 81.6864 73.5659 82.0884C73.5659 82.2492 73.2845 82.41 72.9629 82.41C72.4403 82.41 69.5459 77.787 69.5459 76.9428C69.5459 76.0182 72.5609 73.4052 73.9277 73.1238C75.7769 72.762 79.1939 72.6816 79.1939 73.0032ZM92.3795 73.1238C93.0227 73.5258 92.4197 74.0886 90.3293 74.973C89.5253 75.2946 88.8419 75.7368 88.8419 75.9378C88.8419 76.1388 87.8771 76.8624 86.6711 77.5056C84.4199 78.792 82.0883 81.204 81.0431 83.3346C80.4401 84.5808 80.4803 84.6612 81.5255 85.5054C82.8923 86.631 83.2943 86.631 84.7013 85.5054C85.3043 84.9828 86.0681 84.621 86.3495 84.6612C86.5907 84.7014 87.0731 84.7416 87.3947 84.7818C87.8369 84.822 87.9575 85.3446 87.9173 86.6712C87.8369 88.1988 87.9977 88.641 88.8419 89.3244C90.6509 90.7716 93.6659 89.3244 93.6659 86.9526C93.6659 86.028 92.3393 84.2994 91.2941 83.9778C90.8921 83.817 90.9725 83.4954 91.5353 82.4904C92.1785 81.3648 92.4197 81.2442 93.4649 81.4452C94.7915 81.6864 96.8819 80.4402 96.8819 79.3548C96.8819 79.0332 95.9975 78.1488 94.8719 77.3448C93.7865 76.5408 92.8619 75.8574 92.8619 75.777C92.8619 75.6966 93.9071 75.2946 95.1935 74.8524C97.3643 74.1288 97.5653 74.1288 99.4547 74.772C100.58 75.1338 101.505 75.6162 101.545 75.8172C101.625 76.0182 100.942 76.6614 100.058 77.3046C97.8869 78.792 97.6859 79.5156 99.0929 80.6814C99.9371 81.4452 100.5 81.606 101.465 81.4452C102.55 81.2442 102.831 81.405 103.555 82.4904L104.399 83.7768L103.153 84.621C102.188 85.2642 101.867 85.7868 101.786 86.9124C101.545 89.6058 104.118 90.9726 106.168 89.2842C106.972 88.641 107.133 88.1586 107.052 86.6712C107.012 84.8622 107.012 84.822 108.218 84.822C108.861 84.822 109.866 85.1838 110.429 85.626C111.796 86.6712 112.56 86.631 113.685 85.425C114.731 84.3396 114.61 83.8572 112.68 81.3246C111.555 79.797 106.088 75.576 103.635 74.3298C101.264 73.1238 102.188 72.762 107.776 72.762H112.479L113.927 74.5308C115.736 76.782 119.796 83.3748 119.796 84.0984C119.756 84.7416 116.7 86.6712 115.012 87.033C113.364 87.3948 111.756 89.3646 111.756 91.053C111.756 92.058 112.077 92.661 113.002 93.4248C113.685 93.9876 114.409 94.47 114.65 94.47C114.891 94.47 114.489 94.872 113.726 95.3946C111.917 96.6006 111.394 98.088 112.319 99.495C113.163 100.781 113.846 101.063 115.213 100.741C115.856 100.58 116.419 100.018 116.7 99.294C117.263 97.8066 117.665 97.7664 118.268 99.093C118.67 99.9372 118.59 100.259 117.866 101.023C116.781 102.188 116.781 102.309 117.786 103.595C118.469 104.48 118.911 106.128 118.429 106.128C118.349 106.128 117.987 106.249 117.665 106.369C117.303 106.49 117.022 106.289 116.861 105.766C116.419 103.997 112.881 104.198 112.238 106.007C111.716 107.495 112.278 108.821 113.766 109.666C115.253 110.51 115.293 110.872 113.967 111.193C112.801 111.475 111.354 113.163 111.354 114.208C111.354 114.61 111.876 115.535 112.56 116.299L113.726 117.665L112.52 119.113C111.675 120.118 110.871 120.64 109.826 120.801C109.022 120.962 108.017 121.163 107.575 121.283C106.892 121.484 106.851 121.324 107.093 119.675C107.575 116.54 106.007 114.811 103.555 115.776C101.344 116.58 101.143 118.952 103.073 120.801L104.48 122.128L103.595 122.932C103.113 123.374 102.188 123.896 101.505 124.057C100.098 124.379 98.8919 125.303 98.8919 126.067C98.8919 126.71 97.1633 127.313 96.9623 126.71C96.5603 125.504 95.1131 124.218 93.8669 123.977C93.1433 123.856 92.1383 123.334 91.6559 122.811L90.8117 121.886L92.0177 121.042C93.5051 119.957 93.8669 118.871 93.2639 117.384C92.6609 115.937 90.9725 115.173 89.5253 115.736C87.7967 116.419 87.3545 118.309 88.2791 120.801C88.5203 121.364 88.2791 121.404 86.3897 121.163C84.7415 120.962 83.8973 120.6 82.9325 119.675C82.2089 118.992 81.6059 118.268 81.6059 118.108C81.6059 117.907 82.0481 117.263 82.6109 116.66C83.9375 115.213 83.9375 113.284 82.6109 111.957C82.0883 111.394 81.3647 110.952 81.0029 110.952C80.0381 110.952 80.3195 110.429 81.7265 109.545C82.8119 108.862 83.0129 108.5 83.0129 107.133C83.0129 105.847 82.8119 105.445 81.9275 104.962C80.6009 104.198 78.7919 104.721 78.1889 106.048C77.6663 107.213 77.2643 107.173 76.9427 105.927C76.7819 105.284 76.9427 104.52 77.3849 103.877C78.0281 102.872 78.0281 102.751 77.3447 101.465C76.7015 100.299 76.7015 100.018 77.1839 99.093L77.7467 98.088L78.1889 99.2136C78.8723 100.741 80.5205 101.465 81.9275 100.822C84.1385 99.7362 83.9375 96.4398 81.6059 95.5554C80.1185 94.9926 80.1185 94.7916 81.5657 94.1484C84.7013 92.7816 83.7767 88.3998 80.0783 87.1938C79.3145 86.9526 78.0683 86.3094 77.2643 85.7868C76.5005 85.2642 75.6965 84.822 75.5357 84.822C74.4101 84.822 76.7819 80.0784 80.3597 75.174L82.1285 72.762H86.9927C89.6861 72.762 92.0981 72.9228 92.3795 73.1238ZM123.534 74.6916C124.419 75.5358 125.022 76.5408 125.022 77.1036C125.022 78.1086 124.178 79.9578 122.891 81.6864L122.087 82.812L118.911 77.9478C117.183 75.2946 115.776 73.0032 115.776 72.8826C115.776 72.762 117.183 72.762 118.911 72.9228C121.766 73.2042 122.127 73.3248 123.534 74.6916ZM69.8675 82.2492C70.7921 83.6562 71.5559 84.9828 71.5559 85.1838C71.5559 85.3848 71.1137 86.5104 70.5911 87.6762C70.0685 88.8822 69.4253 90.8922 69.1037 92.2188L68.5811 94.5906L67.6565 93.4248C66.5711 92.0982 65.1239 88.44 65.1239 87.0732C65.1239 86.229 65.9279 83.6964 67.0937 80.6814C67.3349 80.0784 67.6565 79.596 67.8173 79.6362C68.0183 79.6362 68.9027 80.802 69.8675 82.2492ZM128.278 82.209C130.127 86.3094 130.208 87.837 128.64 91.2138C127.916 92.8218 127.112 94.0278 126.911 93.9474C126.67 93.867 126.188 92.7414 125.826 91.4148C125.464 90.1284 124.74 88.1184 124.258 86.9928L123.374 84.9426L125.102 82.2894C126.067 80.802 126.871 79.6362 126.951 79.596C127.032 79.596 127.635 80.7618 128.278 82.209ZM75.6161 87.3144C76.5005 87.7968 77.1839 88.3596 77.1839 88.5606C77.1839 88.7616 76.6613 90.1284 76.0181 91.5756C75.3749 93.063 74.6111 95.1132 74.3699 96.1986C74.0885 97.2438 73.7669 98.1684 73.6061 98.289C73.1237 98.5704 70.7519 96.48 70.7519 95.7564C70.7519 93.8268 73.1639 86.43 73.8071 86.43C73.9277 86.43 74.7719 86.832 75.6161 87.3144ZM122.57 89.0028C123.213 90.4098 123.977 92.6208 124.218 93.9072L124.7 96.2388L123.374 97.3242C122.61 97.9272 121.886 98.3292 121.766 98.1684C121.645 98.0076 121.122 96.6006 120.6 95.073C120.117 93.5052 119.273 91.4148 118.751 90.3696L117.786 88.4802L119.273 87.435C120.117 86.8722 120.921 86.43 121.122 86.43C121.283 86.43 121.967 87.5958 122.57 89.0028ZM123.655 107.816C125.102 108.661 125.102 108.701 124.901 110.872C124.62 113.404 123.695 114.691 121.203 115.816C119.675 116.54 117.786 116.821 117.786 116.379C117.786 116.258 118.308 115.213 118.952 114.047C119.595 112.922 120.439 110.952 120.801 109.746C121.565 107.414 121.766 106.932 122.007 106.932C122.087 106.932 122.811 107.334 123.655 107.816ZM74.5709 110.228C75.0533 111.676 75.8573 113.525 76.3397 114.289C77.5859 116.339 77.4653 116.701 75.6965 116.379C73.1237 115.937 70.9127 114.369 70.1891 112.56C69.1439 109.947 69.3449 109.063 71.0735 108.178C71.8775 107.736 72.8021 107.414 73.1237 107.455C73.4051 107.495 74.0885 108.741 74.5709 110.228Z" fill="#001D23"/>
<path d="M93.1835 37.3458L91.8569 38.5518L92.7011 39.396L93.5453 40.2402L94.9121 39.4362C96.6407 38.391 97.9271 38.391 99.6557 39.4362C100.902 40.2 101.023 40.2 101.746 39.5568C102.832 38.592 102.711 37.9488 101.143 37.0242C100.138 36.381 99.1331 36.18 97.1231 36.18C94.7513 36.18 94.3493 36.3006 93.1835 37.3458Z" fill="#001D23"/>
<path d="M95.676 41.406C94.6308 43.3356 96.882 45.0642 98.49 43.617C99.9774 42.2904 99.2538 40.602 97.2036 40.602C96.5202 40.602 95.9574 40.8834 95.676 41.406Z" fill="#001D23"/>
<path d="M95.1132 96.1182C93.867 97.6056 93.7866 99.0528 94.9122 100.862C95.3544 101.585 95.676 102.229 95.5956 102.269C95.5152 102.349 94.9122 102.59 94.2288 102.872C91.6962 103.877 89.5656 106.731 90.1686 108.299C90.2892 108.62 91.4148 109.344 92.6208 109.947C94.5906 110.912 95.2338 111.032 97.9674 110.872C100.259 110.791 101.626 110.47 103.033 109.746C105.686 108.419 105.887 108.098 105.043 106.369C104.359 104.922 101.344 102.51 100.219 102.51C99.5352 102.51 99.5352 102.349 100.5 100.822C102.269 97.9272 100.822 94.872 97.7262 94.872C96.4398 94.872 95.9574 95.1132 95.1132 96.1182Z" fill="#001D23"/>
<path d="M65.4054 29.547C60.9834 30.6726 58.6518 35.6574 60.4608 39.999C61.2246 41.7678 63.8376 45.5466 65.8878 47.838L67.536 49.647L68.541 48.441C71.0736 45.5064 74.0484 41.2854 74.6514 39.9186C75.576 37.6674 75.174 34.5318 73.7268 32.4816C71.7972 29.748 68.742 28.6626 65.4054 29.547ZM69.345 32.7228C70.7922 33.3258 72.36 35.4162 72.36 36.7026C72.36 38.0694 71.0736 40.2402 69.9078 40.803C69.3048 41.1246 68.2194 41.406 67.536 41.406C62.8326 41.406 61.1844 35.4162 65.2044 32.964C66.7722 31.9992 67.4958 31.959 69.345 32.7228Z" fill="#001D23"/>
<path d="M69.546 37.2252C69.3048 37.788 69.144 38.4714 69.144 38.7126C69.1842 39.396 70.752 37.4262 70.752 36.7428C70.752 35.8182 69.948 36.0996 69.546 37.2252Z" fill="#001D23"/>
<path d="M125.263 31.758C123.655 32.2404 122.248 33.6474 121.364 35.6574C120.841 36.783 120.238 37.4262 119.434 37.7076C116.821 38.6322 115.575 41.6472 116.741 44.3406C117.545 46.3506 118.952 46.632 127.756 46.632C135.675 46.632 137.203 46.3506 138.449 44.5818C140.579 41.4864 137.404 36.18 133.424 36.18C132.137 36.18 131.856 36.0192 131.856 35.4162C131.856 34.2102 129.926 32.2404 128.318 31.758C126.63 31.3158 126.831 31.3158 125.263 31.758Z" fill="#001D23"/>
<path d="M44.9436 45.3456C44.22 46.3104 41.004 47.4762 39.8382 47.1546C38.793 46.8732 38.0694 47.6772 38.5518 48.5616C38.994 49.3254 37.6272 52.8228 36.8634 52.9836C35.6574 53.2248 35.7378 55.1544 36.9438 55.5564C37.6674 55.7574 38.592 58.8528 38.1498 59.5362C37.6674 60.3402 38.5116 61.5462 39.5166 61.4658C40.803 61.305 44.5416 63.114 44.7426 63.9984C45.024 65.0034 47.034 65.0034 47.034 63.9984C47.034 63.1542 51.054 61.2648 52.0188 61.6266C52.8228 61.9482 53.5866 60.8628 53.3454 59.8578C53.064 58.7322 54.471 55.476 55.275 55.476C55.677 55.476 55.878 55.074 55.878 54.27C55.878 53.3856 55.677 53.064 55.1544 53.064C54.3102 53.064 52.5414 49.446 52.9032 48.4812C53.265 47.5164 52.3404 46.5516 51.5364 47.0742C50.7324 47.5566 47.2752 46.1898 46.8732 45.225C46.5918 44.421 45.5868 44.4612 44.9436 45.3456ZM48.24 49.4058C52.1796 51.456 52.5414 56.28 49.044 59.2548C47.3154 60.6618 44.622 60.702 42.5316 59.295C40.8834 58.2096 39.5568 55.3152 39.9588 53.7474C40.3608 52.1394 41.9688 50.0892 43.416 49.3656C45.225 48.441 46.5114 48.441 48.24 49.4058Z" fill="#001D23"/>
<path d="M44.622 51.5766C44.0994 51.858 43.416 52.5414 43.1346 53.064C42.6924 53.9082 42.7326 54.1494 43.3356 54.5916C43.8984 55.0338 43.9386 55.1544 43.4562 55.4358C42.6924 55.9182 43.1748 57.0036 44.3808 57.486C44.9034 57.687 45.4662 58.0086 45.5868 58.2498C45.9486 58.8126 48.1998 57.486 48.4812 56.481C48.642 56.0388 48.5616 55.6368 48.2802 55.5564C47.637 55.3554 47.7174 54.672 48.441 54.672C49.4862 54.672 49.1244 53.1846 47.7978 52.0992C46.3908 50.9334 46.029 50.853 44.622 51.5766ZM46.431 52.3002C46.833 52.9032 46.3908 53.2248 45.627 52.9032C45.2652 52.7826 45.1044 52.5012 45.225 52.26C45.5466 51.7374 46.1094 51.7374 46.431 52.3002Z" fill="#001D23"/>
<path d="M156.981 66.732C156.86 66.933 155.855 67.134 154.81 67.134C153.765 67.134 152.72 67.335 152.438 67.6164C151.876 68.1792 151.755 84.2592 152.318 85.1436C152.639 85.7064 157.061 86.5506 159.594 86.5506C162.328 86.5104 166.227 85.9074 167.152 85.3848C168.036 84.822 168.036 84.6612 167.996 77.0634C167.956 72.8424 167.835 68.9028 167.674 68.34C167.433 67.4556 167.152 67.335 165.423 67.2144C164.297 67.134 163.252 66.933 163.051 66.6918C162.529 66.2094 157.303 66.2094 156.981 66.732ZM160.8 68.742C160.8 69.2646 160.519 69.546 159.996 69.546C159.473 69.546 159.192 69.2646 159.192 68.742C159.192 68.2194 159.473 67.938 159.996 67.938C160.519 67.938 160.8 68.2194 160.8 68.742ZM157.061 69.546C157.262 70.2696 157.624 70.35 159.996 70.35C162.408 70.35 162.73 70.2696 162.931 69.5058C163.091 68.8626 163.413 68.7018 164.498 68.8224L165.825 68.943L165.946 76.5006C166.026 82.9326 165.946 84.0582 165.423 84.2592C164.498 84.621 162.81 84.0582 162.81 83.415C162.81 82.9326 162.207 82.812 159.795 82.812C157.504 82.812 156.78 82.9326 156.78 83.3748C156.78 84.018 155.494 84.42 154.368 84.1386C153.604 83.9376 153.564 83.5758 153.564 76.8222C153.564 69.144 153.685 68.742 155.695 68.742C156.499 68.742 156.901 68.9832 157.061 69.546ZM160.72 84.5406C160.8 85.023 160.599 85.224 160.036 85.224C159.433 85.224 159.192 84.9828 159.192 84.3798C159.192 83.3748 160.519 83.4954 160.72 84.5406Z" fill="#001D23"/>
<path d="M156.579 72.762C156.418 73.0032 157.664 73.164 159.956 73.164C162.127 73.164 163.614 73.0032 163.614 72.762C163.614 72.5208 162.207 72.36 160.237 72.36C158.348 72.36 156.7 72.5208 156.579 72.762Z" fill="#001D23"/>
<path d="M156.579 75.174C156.418 75.4152 157.664 75.576 159.996 75.576C162.328 75.576 163.574 75.4152 163.413 75.174C163.292 74.9328 161.725 74.772 159.996 74.772C158.267 74.772 156.7 74.9328 156.579 75.174Z" fill="#001D23"/>
<path d="M156.579 77.5458C156.458 77.787 156.499 77.988 156.659 78.1086C156.901 78.2292 161.403 78.1488 163.333 78.0282C163.534 77.988 163.574 77.8272 163.453 77.6664C163.172 77.2242 156.86 77.1036 156.579 77.5458Z" fill="#001D23"/>
<path d="M156.579 80.4C156.418 80.6412 157.664 80.802 159.956 80.802C162.127 80.802 163.614 80.6412 163.614 80.4C163.614 80.1588 162.207 79.998 160.237 79.998C158.348 79.998 156.7 80.1588 156.579 80.4Z" fill="#001D23"/>
<path d="M33.4866 68.6214C31.7178 69.2244 28.542 72.2796 28.542 73.365C28.542 73.8474 29.0646 73.968 31.155 73.968C33.366 73.968 33.768 73.8474 33.768 73.2444C33.8082 72.8826 34.1298 71.556 34.572 70.35C34.974 69.144 35.2956 68.139 35.2554 68.0988C35.2152 68.0586 34.4112 68.2998 33.4866 68.6214Z" fill="#001D23"/>
<path d="M39.396 69.1038C39.597 69.546 39.999 70.7922 40.2402 71.9178L40.6824 73.968H43.2552C46.2702 73.968 46.431 73.6464 44.5818 71.4354C42.6522 69.1038 38.3508 67.1742 39.396 69.1038Z" fill="#001D23"/>
<path d="M36.6625 69.747C36.3811 70.3098 36.0595 71.5158 35.9389 72.36L35.6575 73.968H37.1851H38.6725L38.4313 72.0384C37.9087 68.5008 37.4665 67.938 36.6625 69.747Z" fill="#001D23"/>
<path d="M27.8184 77.4654L27.939 79.395L30.6726 79.5156L33.366 79.6362V77.586V75.576H30.5118H27.6978L27.8184 77.4654Z" fill="#001D23"/>
<path d="M35.376 77.586V79.596H37.185H38.994V77.586V75.576H37.185H35.376V77.586Z" fill="#001D23"/>
<path d="M41.0039 77.586V79.6362L43.9385 79.5156L46.8329 79.395V77.586V75.777L43.9385 75.6564L41.0039 75.5358V77.586Z" fill="#001D23"/>
<path d="M28.542 82.0482C28.542 83.214 31.557 86.0682 33.5268 86.7516C35.2956 87.3948 35.6172 87.234 34.9338 85.9476C34.6524 85.4652 34.2504 84.219 33.969 83.214L33.5268 81.405L31.0344 81.2844C28.7028 81.1638 28.542 81.204 28.542 82.0482Z" fill="#001D23"/>
<path d="M35.7781 82.0884C35.7781 83.214 37.0243 86.832 37.4263 86.832C37.7479 86.832 38.5921 83.2944 38.5921 82.008C38.5921 81.3648 38.3107 81.204 37.1851 81.204C35.9791 81.204 35.7781 81.3246 35.7781 82.0884Z" fill="#001D23"/>
<path d="M40.6021 82.2492C40.3609 82.812 40.2001 83.4954 40.2001 83.7768C40.2001 84.0984 39.9187 84.9828 39.5971 85.7868C38.8735 87.5154 39.1549 87.5958 41.8081 86.229C43.7779 85.224 46.4311 82.2492 45.9889 81.5658C45.8683 81.3648 44.7025 81.204 43.3759 81.204C41.1649 81.204 40.9639 81.2844 40.6021 82.2492Z" fill="#001D23"/>
<path d="M52.7424 91.5354C51.9786 92.1786 51.858 92.7414 51.7776 96.078L51.657 99.897L47.5566 100.018L43.416 100.138V101.304V102.47L47.5566 102.59L51.657 102.711L51.858 109.746L52.059 116.781L54.3906 120.962C56.1996 124.178 56.6016 125.223 56.1996 125.464C55.476 125.947 54.9132 125.906 53.667 125.263C52.0188 124.379 49.848 125.504 49.848 127.193C49.848 129.725 52.7022 130.73 54.4308 128.841C55.5162 127.635 57.4056 127.474 57.7272 128.519C58.6518 131.253 60.3804 133.906 63.1542 136.841C64.8828 138.69 66.33 140.338 66.33 140.499C66.33 140.7 65.8476 141.464 65.2848 142.187C64.521 143.192 63.9984 143.514 63.4356 143.393C62.511 143.152 60.6618 143.755 60.2196 144.439C59.2548 145.926 60.903 148.74 62.712 148.74C63.8778 148.74 65.526 146.971 65.526 145.765C65.526 145.122 66.0888 144.197 66.933 143.313L68.34 141.906L73.3248 144.318C76.0584 145.645 79.7166 147.253 81.4854 147.896C83.214 148.539 85.3044 149.343 86.1084 149.705L87.5958 150.348L87.7164 156.7L87.837 163.011L97.4046 163.132L106.932 163.212V156.86V150.509L108.46 149.785C109.264 149.383 111.314 148.539 113.002 147.936C114.65 147.293 118.309 145.685 121.123 144.318L126.228 141.826L127.796 143.152C128.841 144.077 129.404 144.961 129.565 145.966C129.886 147.735 130.69 148.459 132.338 148.459C134.509 148.459 135.836 145.886 134.549 144.157C134.228 143.675 133.424 143.434 132.298 143.393C130.811 143.313 130.369 143.112 129.364 141.826L128.158 140.378L131.374 137.162C133.826 134.71 134.951 133.223 136.037 130.891C137.404 128.037 137.605 127.836 138.73 127.836C139.574 127.836 140.218 128.158 140.78 128.841C142.187 130.65 145.122 129.766 145.122 127.555C145.122 125.223 143.434 124.218 141.383 125.223C140.057 125.906 138.69 125.705 138.69 124.821C138.69 124.499 139.695 122.369 140.901 120.077L143.112 115.897V109.223V102.55L147.052 102.43C150.911 102.309 150.951 102.309 150.951 101.304C150.951 100.299 150.911 100.299 147.052 100.178L143.112 100.058V96.078C143.112 92.259 143.072 92.058 142.107 91.4148C141.263 90.852 140.901 90.852 139.896 91.254C139.213 91.5354 138.61 92.1384 138.529 92.6208C138.409 93.063 138.248 98.0076 138.087 103.595L137.886 113.726L135.916 117.464C134.871 119.515 133.464 122.891 132.861 124.982L131.695 128.72L127.354 132.781C124.982 134.992 122.489 137.162 121.846 137.605C121.163 138.007 119.032 138.61 117.103 138.971C114.61 139.414 113.284 139.856 112.439 140.539C111.233 141.544 110.711 141.705 107.575 142.067C105.244 142.348 103.515 143.273 102.349 144.841C101.626 145.846 101.465 146.73 101.304 151.353C101.103 156.338 101.023 156.78 100.138 157.745C98.8116 159.152 96.5604 159.192 94.9926 157.825C93.9072 156.86 93.867 156.74 93.666 151.474C93.5454 148.378 93.2238 145.685 92.9424 145.122C92.0982 143.434 89.8872 142.308 86.9928 142.027C85.1436 141.866 83.9778 141.504 83.0934 140.861C81.204 139.494 80.5206 139.213 77.184 138.73C73.566 138.167 72.8022 137.685 67.2546 132.338L63.1944 128.399L61.908 124.178C61.1844 121.886 60.099 119.153 59.4558 118.108C57.2046 114.369 57.1644 114.047 56.8428 102.912C56.682 96.3594 56.4006 92.2188 56.1192 91.857C55.3554 90.8922 53.7072 90.7314 52.7424 91.5354Z" fill="#001D23"/>
<path d="M27.5773 96.6408L24.1201 100.379V104.641C24.1201 109.465 24.2809 109.746 27.2959 109.746H28.9441V106.972C28.9441 104.842 29.1049 103.997 29.7481 103.234C31.2355 101.304 34.4917 101.585 35.5771 103.756C35.8987 104.359 36.1801 105.967 36.1801 107.334V109.746H37.9489C40.6825 109.746 41.0041 109.183 41.0041 104.44V100.42L37.5067 96.6408C34.3309 93.1434 33.9289 92.862 32.5219 92.862C31.1551 92.862 30.7531 93.1434 27.5773 96.6408Z" fill="#001D23"/>
<path d="M159.875 94.3896C159.473 94.7916 159.192 95.7162 159.192 96.3996C159.192 97.485 159.353 97.686 160.157 97.686C160.92 97.686 161.162 97.4448 161.282 96.5604C161.403 95.475 161.443 95.475 164.538 95.3544L167.634 95.2338L167.875 96.48C168.076 97.284 168.357 97.686 168.88 97.686C169.483 97.686 169.644 97.3644 169.644 96.078C169.644 93.9876 168.96 93.666 164.297 93.666C161.162 93.666 160.398 93.7866 159.875 94.3896Z" fill="#001D23"/>
<path d="M154.489 99.294C153.484 99.696 153.524 99.2538 153.443 107.254C153.323 114.168 152.68 113.766 164.378 113.766C171.976 113.766 173.624 113.645 174.388 113.123C175.232 112.52 175.272 112.279 175.272 106.128C175.272 100.219 175.232 99.696 174.508 99.294C173.543 98.7714 155.735 98.7714 154.489 99.294Z" fill="#001D23"/>
<path d="M31.2756 103.756C30.6726 104.078 30.552 104.721 30.552 106.932V109.746H32.562H34.572V107.213C34.572 103.837 33.3258 102.55 31.2756 103.756Z" fill="#001D23"/>
<path d="M71.556 122.208C71.1138 122.65 70.752 123.374 70.752 123.816C70.752 124.298 72.8022 126.791 75.7368 129.967C78.5106 132.861 81.405 136.117 82.209 137.162C83.9778 139.494 84.3798 139.735 87.435 140.097C91.254 140.579 93.5454 142.027 95.0328 145.001C95.5152 145.966 95.676 147.454 95.676 150.75C95.676 155.654 95.9976 156.78 97.485 156.78C98.9724 156.78 99.294 155.654 99.294 150.79C99.294 145.966 99.6156 144.68 101.224 142.991C102.751 141.343 104.761 140.459 107.414 140.177C110.429 139.896 110.952 139.574 113.565 136.278C114.811 134.71 117.706 131.494 119.997 129.042C122.57 126.389 124.218 124.339 124.218 123.816C124.218 122.69 122.811 121.404 121.605 121.404C120.64 121.404 119.233 122.65 114.61 127.595C112.48 129.886 112.359 129.967 108.902 130.65C104.56 131.534 100.902 133.424 99.0126 135.755L97.6056 137.484L95.7162 135.514C93.4248 133.062 89.5254 131.132 85.5858 130.529L82.7718 130.087L78.6312 125.746C74.169 121.082 73.164 120.6 71.556 122.208Z" fill="#001D23"/>
<path d="M150.147 122.771C149.464 123.052 148.418 123.896 147.815 124.58C146.931 125.625 146.73 126.268 146.73 127.957C146.73 130.328 147.735 132.821 149.222 134.188L150.227 135.112L153.403 132.057C155.132 130.409 156.901 129.042 157.343 129.042C157.745 129.042 159.433 130.288 161.081 131.856C162.73 133.384 164.257 134.67 164.418 134.67C165.142 134.67 167.192 131.655 167.594 129.967C168.398 126.831 166.87 123.695 164.016 122.53C162.569 121.967 159.956 122.489 158.629 123.615C157.986 124.178 157.343 124.62 157.222 124.62C157.142 124.62 156.539 124.138 155.936 123.575C154.609 122.288 151.956 121.927 150.147 122.771Z" fill="#001D23"/>
<path d="M28.341 125.906C27.939 126.148 27.0144 126.469 26.3712 126.59C25.728 126.751 25.125 127.072 25.0044 127.354C24.8034 128.037 27.2958 127.957 28.542 127.233C29.7882 126.509 31.0344 126.469 31.6776 127.112C31.9992 127.434 31.8384 127.876 30.954 128.921C30.2706 129.685 29.748 130.529 29.748 130.851C29.748 132.379 32.361 133.263 33.366 132.057C33.8886 131.414 34.2504 131.615 37.1448 133.946L38.2704 134.911L36.0996 136.6C34.8936 137.524 33.567 138.288 33.1248 138.288C32.7228 138.288 31.1952 137.363 29.7882 136.238C28.0194 134.871 26.8938 134.268 26.2506 134.348C25.125 134.509 24.9642 135.193 26.0094 135.434C26.4114 135.514 27.939 136.439 29.3862 137.524C31.0746 138.77 32.4816 139.494 33.165 139.494C33.8484 139.494 35.2554 138.77 36.9438 137.524C38.391 136.439 39.9588 135.514 40.3608 135.434C41.3658 135.233 41.3658 134.509 40.3608 134.308C39.7176 134.188 36.5418 132.137 35.2152 131.012C34.974 130.811 35.1348 130.328 35.577 129.846C36.0594 129.323 36.18 128.881 35.9388 128.64C35.6574 128.359 34.974 128.801 33.969 129.846C32.361 131.494 31.5972 131.816 31.155 131.012C30.753 130.409 34.9338 126.63 35.9388 126.63C36.4212 126.67 37.2252 126.911 37.788 127.233C39.0342 127.957 41.5266 128.037 41.3256 127.354C41.205 127.072 40.602 126.751 39.9588 126.59C39.3156 126.469 38.391 126.148 37.9086 125.906C36.7428 125.263 34.9338 125.303 33.9288 125.987C33.2454 126.469 33.0444 126.469 32.361 125.987C31.4364 125.303 29.4666 125.263 28.341 125.906Z" fill="#001D23"/>
<path d="M155.896 131.816C155.373 132.459 153.644 134.107 152.077 135.514C150.227 137.122 149.142 138.368 149.142 138.891C149.142 139.373 150.67 141.182 153.202 143.594L157.262 147.534L161.242 143.876C163.413 141.866 165.302 139.856 165.463 139.373C165.664 138.73 164.941 137.806 161.725 134.59C159.514 132.419 157.504 130.65 157.262 130.65C157.021 130.65 156.418 131.173 155.896 131.816ZM158.308 134.75C158.589 135.032 158.79 135.755 158.79 136.358C158.79 137.363 158.911 137.484 160.197 137.484C161.363 137.484 161.644 137.645 161.845 138.489C162.167 139.816 161.403 140.7 159.956 140.7C158.991 140.7 158.83 140.861 158.71 141.986C158.589 143.152 158.468 143.313 157.383 143.313C156.378 143.313 156.097 143.112 155.775 141.986C155.494 141.062 155.172 140.7 154.529 140.7C153.403 140.7 152.68 139.775 152.84 138.61C152.921 137.886 153.242 137.645 154.288 137.564C155.252 137.444 155.574 137.243 155.574 136.64C155.574 134.67 157.142 133.585 158.308 134.75Z" fill="#001D23"/>
<path d="M40.2804 146.449C39.5568 147.253 39.396 147.856 39.396 150.308C39.396 153.122 39.4764 153.323 40.7628 154.609C41.5266 155.373 42.3708 155.976 42.6924 155.976C42.9738 155.976 43.4964 156.82 43.818 157.865C44.8632 161.202 48.24 162.529 51.4158 160.88C53.1846 159.996 54.27 157.946 54.27 155.453C54.27 154.247 54.5112 153.283 54.873 152.921C55.5966 152.197 55.677 150.71 54.9936 150.026C53.9082 148.941 51.456 149.906 51.456 151.393C51.456 151.715 51.858 152.358 52.3002 152.8C53.0238 153.524 53.1444 154.006 52.9836 155.896C52.8228 157.785 52.5816 158.308 51.4962 159.272C49.6872 160.921 47.7978 160.84 45.9888 159.031C44.5416 157.584 44.1798 155.976 45.2652 155.976C45.627 155.976 46.5114 155.373 47.2752 154.609C48.5616 153.323 48.642 153.082 48.642 150.428C48.642 147.253 47.7174 145.524 46.029 145.524C44.6622 145.524 44.3808 146.248 45.627 146.569C46.9938 146.931 47.436 147.856 47.436 150.549C47.436 152.398 47.2752 152.961 46.431 153.765C45.1044 155.132 42.9336 155.132 41.5668 153.765C40.6824 152.881 40.5618 152.479 40.6824 150.026C40.803 147.413 40.8432 147.333 42.1296 146.77C43.7376 146.047 43.7778 145.524 42.2904 145.524C41.607 145.524 40.803 145.926 40.2804 146.449ZM54.1896 151.433C54.0288 152.318 53.3052 152.237 53.1444 151.393C53.064 150.991 53.265 150.75 53.667 150.75C54.069 150.75 54.27 151.031 54.1896 151.433Z" fill="#001D23"/>
<path d="M134.389 149.906C132.379 150.83 130.811 153.041 130.409 155.453C130.168 157.021 130.047 157.182 128.962 157.182C127.273 157.182 124.7 158.629 123.816 160.076C122.57 162.127 122.489 163.373 123.334 165.383C124.66 168.317 125.464 168.559 134.469 168.478C138.65 168.438 142.79 168.237 143.635 167.996C145.363 167.554 147.534 165.745 148.78 163.775C150.509 160.921 149.182 156.458 146.127 154.85C145.403 154.489 144.197 153.363 143.434 152.358C141.062 149.222 137.846 148.338 134.389 149.906ZM139.012 153.041C139.132 154.207 139.293 154.328 140.62 154.448C142.027 154.569 142.107 154.649 142.107 155.976C142.107 157.262 141.986 157.423 140.62 157.745C139.333 158.066 139.132 158.308 139.012 159.353C138.891 160.478 138.77 160.599 137.484 160.599C136.198 160.599 136.077 160.478 135.876 159.192C135.715 157.946 135.514 157.785 134.389 157.664C133.142 157.544 133.062 157.423 133.062 155.936C133.062 154.408 133.102 154.368 134.469 154.368C135.755 154.368 135.876 154.247 135.876 153.242C135.876 151.755 136.198 151.474 137.685 151.634C138.73 151.755 138.891 151.956 139.012 153.041Z" fill="#001D23"/>
<path d="M60.8227 158.589C60.0589 160.679 62.2699 163.855 64.8025 164.257C66.0085 164.458 66.2899 164.699 66.4105 165.544C66.5713 166.951 67.4557 167.152 67.6165 165.825C67.6969 164.941 68.0989 164.619 69.7069 164.096C72.0787 163.292 73.2445 161.885 73.3249 159.715C73.3651 158.187 73.3651 158.187 71.8777 158.227C69.9883 158.267 68.3803 159.313 67.8175 160.84C67.2547 162.328 66.9733 162.287 66.2899 160.76C65.4859 158.79 61.3855 157.182 60.8227 158.589Z" fill="#001D23"/>
<path d="M87.9175 165.463C87.7567 165.624 87.6361 166.83 87.6361 168.116C87.6361 170.327 87.5959 170.448 86.8723 170.046C83.9377 168.518 81.1237 171.574 83.1337 174.066C83.8573 174.95 85.1437 175.192 86.7115 174.669C87.5959 174.388 87.5959 174.428 87.7165 178.729L87.8371 183.111H92.0581H96.2791V174.267V165.423L92.2189 165.302C90.0079 165.262 88.0783 165.302 87.9175 165.463Z" fill="#001D23"/>
<path d="M98.8921 174.267V183.312H102.912H106.932V178.97C106.932 174.548 107.093 173.785 107.897 174.428C109.022 175.312 110.228 175.192 111.434 174.106C112.439 173.222 112.64 172.78 112.399 171.935C111.877 169.845 110.59 169.322 107.736 170.086C107.254 170.207 107.093 169.724 107.012 167.714L106.892 165.222H102.912H98.8921V174.267Z" fill="#001D23"/>
<path d="M72.7621 168.518C71.9179 169.081 71.2747 169.966 71.0737 170.729C70.5511 172.659 69.0235 173.664 66.5311 173.664C65.1643 173.664 64.2397 173.463 63.9181 173.061C63.3151 172.337 63.5965 172.177 66.7321 171.734C68.6215 171.493 68.9431 171.292 69.0637 170.528C69.2647 169.041 68.4607 168.438 66.2497 168.438C62.9533 168.438 60.7423 169.202 58.8529 171.011C57.7273 172.136 57.1645 172.94 57.2851 173.463C57.3655 173.905 57.4459 174.95 57.4459 175.754L57.4861 177.282H63.1945C69.9883 177.282 71.0737 176.92 74.5309 173.262C77.2645 170.408 77.4253 169.242 75.2947 168.076C74.1691 167.513 74.3299 167.473 72.7621 168.518Z" fill="#001D23"/>
</svg>
